<?xml version="1.0" encoding="iso-8859-1"?>
<!-- Generator: Adobe Illustrator 19.0.0, SVG Export Plug-In . SVG Version: 6.00 Build 0)  -->
<svg xmlns="http://www.w3.org/2000/svg" xmlns:xlink="http://www.w3.org/1999/xlink" version="1.1" id="Capa_1" x="0px" y="0px" viewBox="0 0 511.999 511.999" style="enable-background:new 0 0 511.999 511.999;" xml:space="preserve" width="512px" height="512px">
<g>
	<g>
		<path d="M511.677,477.935l-16.585-80.548C491.254,384.599,479.711,376,466.352,376H407.22c9.516,0,16.628-8.749,14.683-18.065    l-16.811-80.548C401.254,264.599,389.711,256,376.352,256H317.22c9.516,0,16.628-8.749,14.683-18.065l-16.811-80.548    C311.254,144.599,299.711,136,286.352,136h-60.703c-13.564,0-24.961,8.862-28.74,21.387l-16.811,80.548    c-1.945,9.316,5.167,18.065,14.683,18.065h-59.132c-13.564,0-24.961,8.862-28.74,21.387l-16.811,80.548    c-1.945,9.316,5.167,17.865,14.683,17.865L45.648,376c-13.564,0-24.961,8.862-28.74,21.387L0.322,477.935    C-1.623,487.25,5.489,496,15.005,496h122.214c9.516,0,16.628-8.749,14.683-18.065l-16.811-80.548    c-3.838-12.788-15.381-21.587-28.74-21.587h119.297c-13.564,0-24.961,9.062-28.74,21.587l-16.811,80.548    C178.152,487.25,185.264,496,194.78,496h122.439c9.516,0,16.628-8.749,14.683-18.065l-16.811-80.548    c-3.838-12.788-15.381-21.587-28.74-21.587h119.297c-13.564,0-24.961,9.062-28.74,21.587l-16.811,80.548    C358.152,487.25,365.264,496,374.78,496h122.214C506.51,496,513.622,487.25,511.677,477.935z M286.908,277.386l-16.811,80.548    C268.152,367.25,275.264,376,284.78,376h-57.561c9.516,0,16.628-8.749,14.683-18.065l-16.811-80.548    c-3.838-12.788-15.381-21.587-28.74-21.587l119.297,0.2C302.084,256,290.687,264.862,286.908,277.386z" fill="#5c873d"/>
	</g>
</g>
<g>
	<g>
		<path d="M256,16c-8.291,0-15,6.709-15,15v45c0,8.291,6.709,15,15,15s15-6.709,15-15V31C271,22.709,264.291,16,256,16z" fill="#5c873d"/>
	</g>
</g>
<g>
	<g>
		<path d="M206.605,80.394l-30-30c-5.859-5.859-15.352-5.859-21.211,0c-5.859,5.859-5.859,15.352,0,21.211l30.001,30    c2.93,2.93,6.768,4.395,10.605,4.395s7.676-1.465,10.605-4.395C212.464,95.745,212.464,86.253,206.605,80.394z" fill="#5c873d"/>
	</g>
</g>
<g>
	<g>
		<path d="M356.605,50.394c-5.859-5.859-15.352-5.859-21.211,0l-30,30c-5.859,5.859-5.859,15.352,0,21.211    c2.93,2.93,6.768,4.395,10.606,4.395s7.676-1.465,10.605-4.395l30-30C362.464,65.745,362.464,56.253,356.605,50.394z" fill="#5c873d"/>
	</g>
</g>
<g>
</g>
<g>
</g>
<g>
</g>
<g>
</g>
<g>
</g>
<g>
</g>
<g>
</g>
<g>
</g>
<g>
</g>
<g>
</g>
<g>
</g>
<g>
</g>
<g>
</g>
<g>
</g>
<g>
</g>
</svg>
